<?xml version="1.0" encoding="utf-8"?>
<!-- Generator: Adobe Illustrator 16.0.0, SVG Export Plug-In . SVG Version: 6.00 Build 0)  -->
<!DOCTYPE svg PUBLIC "-//W3C//DTD SVG 1.1//EN" "http://www.w3.org/Graphics/SVG/1.1/DTD/svg11.dtd">
<svg version="1.1" id="Capa_1" xmlns="http://www.w3.org/2000/svg" xmlns:xlink="http://www.w3.org/1999/xlink" x="0px" y="0px"
	 width="612px" height="239.334px" viewBox="0 0 612 239.334" enable-background="new 0 0 612 239.334" xml:space="preserve">
<g>
	<path fill-rule="evenodd" clip-rule="evenodd" fill="#30BCEE" d="M87.649,212.164c25.671-0.392,43.003-13.276,53.522-36.087
		c3.917-8.492,5.441-17.639,6.146-26.923c1.007-13.262-2.287-25.439-9.193-36.723c-3.806-6.219-9.425-10.243-15.888-13.26
		c-6.969-3.253-14.375-5.209-21.732-7.319c-7.515-2.155-15.073-4.211-22.012-7.959c-7.314-3.95-12.712-9.533-14.532-17.889
		c-4.49-20.617,8.729-39.972,29.17-42.913c6.334-0.912,12.56-0.31,18.524,2.076c9.582,3.833,14.914,11.196,16.957,21.077
		c2.001,9.676,0.469,18.834-4.42,27.441c-0.68,1.198-1.186,1.61-2.457,0.62c-1.822-1.421-3.791-2.661-5.748-3.897
		c-0.837-0.529-0.998-0.987-0.671-1.975c2.252-6.809,3.117-13.771,1.514-20.836c-1.772-7.813-8.636-13.32-16.671-13.651
		c-3.33-0.137-6.615,0.104-9.796,1.165c-6.781,2.262-9.992,7.428-11.282,14.073c-0.545,2.809-0.937,5.636-0.522,8.537
		c0.932,6.527,4.682,10.756,10.574,13.309c4.083,1.769,8.508,2.235,12.771,3.318c8.398,2.135,16.608,4.787,24.526,8.341
		c15.346,6.89,25.956,18.329,31.833,33.939c7.484,19.879,8.737,40.233,1.484,60.364c-8.723,24.215-25.718,39.989-50.879,46.463
		c-7.737,1.991-15.608,1.791-23.501,0.951c-9.666-1.027-19.018-3.265-27.799-7.437c-21.362-10.148-35.47-26.435-41.261-49.568
		c-1.787-7.14-1.729-14.408-1.213-21.702c0.523-7.395,1.628-14.666,4.054-21.697c0.647-1.878,1.453-3.688,2.353-5.461
		c0.45-0.888,0.848-1.25,1.82-0.542c1.6,1.163,4.005,1.85,4.748,3.379c0.712,1.466-0.888,3.564-1.441,5.393
		c-2.484,8.209-4.458,16.557-4.384,25.148c0.192,22.27,9.582,39.496,28.961,50.876c9.178,5.39,19.243,8.062,29.808,9.009
		C83.212,212,85.41,212.079,87.649,212.164z"/>
	<path fill-rule="evenodd" clip-rule="evenodd" fill="#30BCEE" d="M466.744,72.69c4.693,12.829,12.035,24.028,15.67,36.835
		c2.729,9.613,3.307,19.398,2.689,29.311c-0.375,6.015-1.189,11.947-3.17,17.666c-1.234,3.567-2.867,6.932-5.506,9.705
		c-5.781,6.072-14.016,5.986-19.621-0.242c-3.93-4.363-5.75-9.728-6.916-15.332c-3.383-16.28-1.811-32.198,3.52-47.861
		c3.309-9.724,7.387-19.099,12.24-28.144C465.934,74.1,466.24,73.583,466.744,72.69z"/>
	<path fill-rule="evenodd" clip-rule="evenodd" fill="#30BCEE" d="M421.135,80.207c-8.078,0.204-15.85,0.405-23.621,0.593
		c-3.475,0.084-6.949,0.131-10.422,0.223c-0.754,0.02-1.107-0.188-1.094-1.014c0.039-2.207,0.051-4.415-0.004-6.62
		c-0.023-0.946,0.428-1.088,1.207-1.067c1.379,0.037,2.758,0.01,4.137,0.01c14.18,0,28.359,0.022,42.537-0.033
		c1.43-0.006,1.787,0.322,1.859,1.797c0.16,3.287-0.615,6.212-1.986,9.202c-11.271,24.582-22.428,49.218-33.613,73.84
		c-0.783,1.722-0.773,1.73,1.109,1.73c10.926,0.003,21.85,0.021,32.773-0.023c1.26-0.004,1.746,0.267,1.688,1.629
		c-0.111,2.644-0.107,5.299-0.002,7.942c0.053,1.362-0.328,1.761-1.727,1.761c-13.295,0.002-26.59,0.082-39.885,0.136
		c-3.365,0.013-6.732-0.038-10.096,0.036c-1.221,0.027-1.619-0.221-1.723-1.589c-0.344-4.589,0.83-8.659,2.83-12.806
		c11.873-24.607,23.537-49.314,35.268-73.989C420.604,81.478,420.803,80.976,421.135,80.207z"/>
	<path fill-rule="evenodd" clip-rule="evenodd" fill="#FFFFFF" d="M220.459,31.128c-0.001-4.302-0.008-8.604,0.001-12.907
		c0.004-2.173,0.362-2.559,2.454-2.553c5.457,0.014,5.108-0.613,5.101,5.038c-0.01,7.336,0.026,14.672-0.014,22.008
		c-0.019,3.403,0.657,6.526,4.06,8.014c3.888,1.701,7.876,1.694,11.5-0.801c2.062-1.419,2.712-3.677,2.717-6.103
		c0.017-8.384,0.015-16.768,0.022-25.152c0.002-2.803,0.204-3.019,3.002-3.006c4.365,0.02,4.563-0.644,4.534,4.472
		c-0.042,7.501-0.018,15.003-0.007,22.504c0.002,1.661-0.125,3.307-0.485,4.925c-1.219,5.47-4.627,8.9-9.958,10.397
		c-4.118,1.156-8.292,1.126-12.419,0.019c-6.539-1.755-10.395-6.942-10.495-14.113C220.412,39.624,220.461,35.376,220.459,31.128z"
		/>
	<path fill-rule="evenodd" clip-rule="evenodd" fill="#FFFFFF" d="M150.914,35.82c0.133-2.248-0.255-5.393,0.217-8.526
		c0.929-6.167,4.45-10.082,10.386-11.728c4.782-1.325,9.599-1.23,14.311,0.458c4.108,1.472,6.753,4.395,8.257,8.451
		c0.538,1.452,0.113,2.347-1.288,2.848c-1.087,0.389-2.199,0.716-3.276,1.131c-1.179,0.455-1.877-0.01-2.394-1.053
		c-2.769-5.587-9.959-7.568-15.286-4.214c-2.185,1.375-3.281,3.451-3.325,5.952c-0.091,5.072-0.121,10.15,0.009,15.221
		c0.109,4.25,3.118,6.944,8.044,7.381c4.372,0.387,8.936-0.859,10.591-5.7c0.424-1.241,1.375-1.459,2.542-1.036
		c0.932,0.337,1.878,0.632,2.804,0.982c1.857,0.703,2.193,1.448,1.504,3.296c-1.732,4.647-5.082,7.52-9.827,8.741
		c-4.129,1.063-8.306,1.07-12.436-0.002c-6.629-1.722-10.583-6.742-10.821-13.703C150.841,41.785,150.914,39.246,150.914,35.82z"/>
	<path fill-rule="evenodd" clip-rule="evenodd" fill="#FFFFFF" d="M190.254,36.591c0-6.125-0.004-12.25,0.002-18.375
		c0.002-2.29,0.26-2.537,2.596-2.551c1.048-0.006,2.097,0.007,3.145,0.006c1.078-0.001,1.631,0.554,1.689,1.609
		c0.03,0.55,0.027,1.103,0.027,1.654c0.001,9.987,0.032,19.975-0.031,29.962c-0.01,1.55,0.36,2.055,2,2.014
		c4.852-0.123,9.71-0.051,14.566-0.04c2.21,0.005,2.567,0.375,2.579,2.609c0.024,4.625,0.267,4.366-4.263,4.357
		c-6.456-0.013-12.912-0.002-19.368-0.004c-2.785-0.001-2.94-0.153-2.942-2.867C190.252,48.84,190.254,42.715,190.254,36.591z"/>
	<path fill-rule="evenodd" clip-rule="evenodd" fill="#30BCEE" d="M478.055,48.003c-0.027,5.567-4.41,9.855-10.037,9.818
		c-5.436-0.037-9.828-4.486-9.809-9.936c0.02-5.421,4.666-9.973,10.096-9.889C473.756,38.082,478.08,42.521,478.055,48.003z"/>
	<path fill-rule="evenodd" clip-rule="evenodd" fill="#30BCEE" d="M192.274,157.492c0,0.906,0,1.499,0,2.093
		c0,16.881-0.019,33.762,0.036,50.643c0.004,1.457-0.35,1.867-1.82,1.827c-3.914-0.109-7.835-0.116-11.748,0.004
		c-1.535,0.047-1.789-0.485-1.787-1.875c0.039-27.804,0.084-55.608-0.009-83.412c-0.024-7.261,0.137-14.464,2.757-21.328
		c7.076-18.532,20.433-29.74,40.031-32.626c26.022-3.832,50.4,13.939,55.254,39.662c5.082,26.93-12.903,53.211-39.785,57.789
		c-15.898,2.709-30.025-1.369-42.144-12.119C192.897,158.005,192.727,157.87,192.274,157.492z M246.525,86.622
		c-7.058-5.616-15.088-8.228-24.049-7.212c-10.217,1.158-18.152,6.438-24.104,14.662c-6.947,9.599-9.558,20.426-8.476,32.172
		c1.056,11.465,5.446,21.336,14.02,29.213c12.734,11.699,31.974,11.594,44.513-0.326c9.537-9.066,13.663-20.405,13.842-33.362
		C262.448,108.03,256.492,94.553,246.525,86.622z"/>
	<path fill-rule="evenodd" clip-rule="evenodd" fill="#30BCEE" d="M362.721,157.842c-3.766,3.32-7.502,5.906-11.594,7.998
		c-28.43,14.529-63.841-2.311-70.451-33.527c-5.839-27.575,11.561-53.999,39.352-59.161c28.137-5.227,53.504,14.112,57.738,40.622
		c0.41,2.561,0.666,5.11,0.66,7.706c-0.033,15.665-0.045,31.33-0.006,46.996c0.004,1.398-0.266,1.908-1.789,1.863
		c-4.023-0.119-8.055-0.102-12.078-0.008c-1.414,0.033-1.926-0.279-1.871-1.8C362.805,165.127,362.721,161.717,362.721,157.842z
		 M364.529,115.844c-1.461-11.604-6.119-21.568-15.271-29.063c-7.891-6.461-16.971-8.934-27.051-6.881
		c-10.215,2.081-17.675,8.151-23.056,16.836c-6.462,10.431-8.226,21.85-6.12,33.82c1.758,9.99,6.211,18.622,13.999,25.352
		c13.256,11.454,31.938,10.987,44.477-1.239c9.221-8.99,13.164-20.195,13.371-32.879
		C364.814,119.796,364.779,117.822,364.529,115.844z"/>
	<path fill-rule="evenodd" clip-rule="evenodd" fill="#4BC1F0" d="M547.994,72.343c27.525,0.075,49.314,22.246,49.229,50.094
		c-0.082,26.833-22.529,48.704-49.887,48.601c-26.309-0.101-49.082-21.361-48.979-49.504
		C498.463,93.221,521.561,72.118,547.994,72.343z M582.998,113.35c-1.879-10.679-6.574-19.83-15.066-26.726
		c-13.094-10.635-31.268-9.746-43.479,2.062c-8.209,7.937-12.412,17.844-13.238,29.088c-0.947,12.867,2.322,24.582,10.916,34.472
		c5.861,6.746,13.227,11.002,22.203,11.756c12.506,1.051,22.387-4.087,29.977-13.807c6.508-8.335,9.291-17.976,9.375-28.46
		C583.758,118.911,583.486,116.12,582.998,113.35z"/>
	<path fill-rule="evenodd" clip-rule="evenodd" fill="#FFFFFF" d="M288.074,35.805c5.196,3.067,7.104,7.62,5.735,13.406
		c-1.16,4.901-5.408,8.346-11.09,8.526c-6.34,0.201-12.69,0.066-19.036,0.097c-1.723,0.008-1.917-1.074-1.916-2.429
		c0.014-10.264,0.006-20.528,0.006-30.792c0-2.318,0.028-4.636-0.001-6.953c-0.018-1.401,0.639-2.006,2.01-1.999
		c6.18,0.033,12.369-0.157,18.538,0.118c8.578,0.382,13.258,9.706,8.744,17.046C290.325,34.028,289.27,34.899,288.074,35.805z
		 M276.033,50.833c1.872,0,3.749,0.079,5.616-0.018c2.913-0.151,4.603-2.166,4.622-5.341c0.02-3.292-1.673-5.453-4.59-5.55
		c-3.797-0.126-7.601-0.056-11.401-0.113c-0.873-0.013-1.139,0.311-1.128,1.158c0.038,2.919,0.05,5.84-0.005,8.759
		c-0.019,0.988,0.379,1.214,1.267,1.191c1.872-0.047,3.746-0.015,5.619-0.015C276.033,50.882,276.033,50.858,276.033,50.833z
		 M275.453,22.572c-1.708,0-3.418,0.028-5.125-0.012c-0.828-0.019-1.188,0.233-1.176,1.124c0.042,2.811,0.027,5.622,0.007,8.433
		c-0.004,0.674,0.212,1.047,0.934,1.03c3.688-0.083,7.39,0.255,11.064-0.224c2.531-0.33,3.875-2.286,3.827-5.309
		c-0.045-2.831-1.524-4.706-4.082-4.905c-1.806-0.141-3.632-0.027-5.449-0.027C275.453,22.645,275.453,22.608,275.453,22.572z"/>
</g>
</svg>
